<svg xmlns="http://www.w3.org/2000/svg" xmlns:xlink="http://www.w3.org/1999/xlink" id="Layer_1" x="0px" y="0px" width="340.1px" height="372.9px" viewBox="0 0 340.1 372.9" style="enable-background:new 0 0 340.1 372.9;" xml:space="preserve"><style type="text/css">	.st0{clip-path:url(#SVGID_00000183248024391015273790000016069135164414199187_);}	.st1{fill:#FEEA96;}	.st2{fill:#FFFBEC;}	.st3{fill:#010010;}	.st4{fill:#FFFCEE;}	.st5{fill:#FEE57D;}	.st6{clip-path:url(#SVGID_00000101787179211749219960000011371272729120421015_);}	.st7{clip-path:url(#SVGID_00000083083691773665231030000014785519548448201881_);}	.st8{fill:#FFF8DE;}	.st9{fill:#FEE064;}	.st10{opacity:0.5;fill:url(#Path_141_00000090271053154167136450000013317775951719220362_);enable-background:new    ;}	.st11{clip-path:url(#SVGID_00000068669901900833201090000007012889581635163794_);}	.st12{opacity:0.7;fill:url(#Path_142_00000044892442664273781710000006909138034695744949_);enable-background:new    ;}	.st13{clip-path:url(#SVGID_00000124873208113891161410000007250548781268574850_);}	.st14{opacity:0.7;fill:url(#Path_143_00000143597702655229291890000016719041389508993464_);enable-background:new    ;}	.st15{clip-path:url(#SVGID_00000127742339858489547690000001100338281845983672_);}	.st16{opacity:0.7;fill:url(#Path_145_00000109747054388903734490000009804597007610290821_);enable-background:new    ;}	.st17{clip-path:url(#SVGID_00000183955551698830579210000018267831816117793692_);}	.st18{opacity:0.6;fill:url(#Path_144_00000183952239524072744320000000767304868606344094_);enable-background:new    ;}	.st19{clip-path:url(#SVGID_00000119110098234980995000000014289538588303115684_);}</style><g id="Group_147" transform="translate(-384.956 -3748.685)">			<linearGradient id="Path_143_00000152945818812948321390000013180241995183987332_" gradientUnits="userSpaceOnUse" x1="-1034.9858" y1="4151.7075" x2="-1034.9858" y2="4150.7075" gradientTransform="matrix(340.0681 0 0 -372.9316 352520.5938 1552051.5)">		<stop offset="0" style="stop-color:#FFB4D0"></stop>		<stop offset="1" style="stop-color:#FCACFF"></stop>	</linearGradient>			<path id="Path_143" style="opacity:0.7;fill:url(#Path_143_00000152945818812948321390000013180241995183987332_);enable-background:new    ;" d="  M449.4,3758.3c22.2-12.8,49.6-12.8,71.9,0l167.8,96.8c22.2,12.8,35.9,36.6,35.9,62.3v35.5c0,25.7-13.7,49.5-35.9,62.4L521.3,4112  c-16.2,9.4-35.4,12-53.6,7.4l-46.9-27c-22.2-12.9-35.9-36.6-35.9-62.2v-193.7c0-22.8,10.8-44.2,29.1-57.7L449.4,3758.3z"></path>	<g id="Group_148" transform="translate(440 3834.574)">		<g>			<defs>				<rect id="SVGID_00000121962062122082356050000012283934612582213041_" x="0" y="0" width="199.9" height="181.2"></rect>			</defs>			<clipPath id="SVGID_00000156576397993671556730000006379917706658374556_">				<use xlink:href="#SVGID_00000121962062122082356050000012283934612582213041_" style="overflow:visible;"></use>			</clipPath>			<g id="Group_134" style="clip-path:url(#SVGID_00000156576397993671556730000006379917706658374556_);">				<path id="Path_121" class="st5" d="M65.6,78.1V37.5c0-8.6-7-15.6-15.6-15.6s-15.6,7-15.6,15.6v18.7c0,5.2-4.2,9.4-9.4,9.4     s-9.4-4.2-9.4-9.4c0,0,0,0,0,0V37.5C15.6,18.5,31,3.1,50,3.1s34.4,15.4,34.4,34.4v40.6L65.6,78.1z"></path>				<rect id="Rectangle_141" x="59.3" y="78.1" class="st1" width="31.2" height="12.5"></rect>				<rect id="Rectangle_142" x="109.3" y="78.1" class="st1" width="31.2" height="12.5"></rect>				<path id="Rectangle_143" class="st4" d="M55.1,90.6h89.7c1.1,0,2,0.9,2,2V176c0,1.1-0.9,2-2,2H55.1c-1.1,0-2-0.9-2-2V92.6     C53.1,91.5,54,90.6,55.1,90.6z"></path>				<path id="Path_122" class="st1" d="M100,159.3c-13.8,0-25-11.2-25-25s11.2-25,25-25s25,11.2,25,25l0,0     C124.9,148.1,113.7,159.3,100,159.3"></path>				<path id="Path_123" class="st1" d="M190.5,140.6c-3.5,0-6.2-2.8-6.2-6.2s2.8-6.2,6.2-6.2c3.5,0,6.2,2.8,6.2,6.2     C196.8,137.8,194,140.5,190.5,140.6"></path>				<path id="Path_124" class="st1" d="M190.5,112.4c-3.5,0-6.2-2.8-6.2-6.2c0-3.5,2.8-6.2,6.2-6.2c3.5,0,6.2,2.8,6.2,6.2     C196.8,109.6,194,112.4,190.5,112.4"></path>				<path id="Path_125" class="st1" d="M190.5,168.7c-3.5,0-6.2-2.8-6.2-6.2s2.8-6.2,6.2-6.2c3.5,0,6.2,2.8,6.2,6.2     C196.8,165.9,194,168.7,190.5,168.7"></path>				<path id="Path_126" class="st1" d="M9.4,140.6c-3.5,0-6.2-2.8-6.2-6.2s2.8-6.2,6.2-6.2s6.2,2.8,6.2,6.2     C15.6,137.8,12.8,140.5,9.4,140.6"></path>				<path id="Path_127" class="st1" d="M9.4,112.4c-3.5,0-6.2-2.8-6.2-6.2c0-3.5,2.8-6.2,6.2-6.2s6.2,2.8,6.2,6.2     C15.6,109.6,12.8,112.4,9.4,112.4"></path>				<path id="Path_128" class="st1" d="M9.4,168.7c-3.5,0-6.2-2.8-6.2-6.2s2.8-6.2,6.2-6.2s6.2,2.8,6.2,6.2     C15.6,165.9,12.8,168.7,9.4,168.7"></path>				<path id="Path_129" class="st3" d="M96.8,118.7v1.4c-1.4,0.5-2.6,1.3-3.6,2.5c-1.8,2-2.5,4.8-1.9,7.4c0.8,3.1,3.6,5.8,7.5,7.3     c2.2,0.8,3.4,2.1,3.7,3c0.1,0.2,0.2,0.8-0.6,1.8c-1.5,1.8-5.1-0.9-5.2-0.9c-1.4-1-3.3-0.8-4.4,0.6c-1,1.4-0.8,3.3,0.6,4.3     c1.2,0.9,2.5,1.6,4,2.1v1.7c0,1.7,1.4,3.1,3.1,3.1c1.7,0,3.1-1.4,3.1-3.1l0,0v-1.4c1.4-0.5,2.6-1.3,3.6-2.4     c1.8-2,2.5-4.8,1.9-7.4c-0.8-3.1-3.6-5.8-7.5-7.3c-2.2-0.8-3.4-2.1-3.7-3c-0.1-0.2-0.2-0.8,0.6-1.8c1.5-1.8,5.1,0.9,5.2,0.9     c1.4,1,3.3,0.8,4.4-0.6c1-1.4,0.8-3.3-0.5-4.3c-1.2-0.9-2.5-1.6-4-2.1v-1.7c0-1.7-1.4-3.1-3.1-3.1     C98.2,115.6,96.8,117,96.8,118.7"></path>				<path id="Path_130" class="st3" d="M71.8,134.3c0,15.5,12.6,28.1,28.1,28.1s28.1-12.6,28.1-28.1s-12.6-28.1-28.1-28.1     C84.4,106.2,71.9,118.8,71.8,134.3 M121.8,134.3c0,12.1-9.8,21.9-21.9,21.9c-12.1,0-21.9-9.8-21.9-21.9     c0-12.1,9.8-21.9,21.9-21.9c0,0,0,0,0,0C112,112.5,121.8,122.2,121.8,134.3"></path>				<path id="Path_131" class="st3" d="M181.7,137.4c1.7,4.9,7.1,7.4,12,5.7c4.9-1.7,7.4-7.1,5.7-12c-1.7-4.9-7.1-7.4-12-5.7     c-2.7,0.9-4.8,3-5.7,5.7h-13.1v-18.7c0-1.7,1.4-3.1,3.1-3.1h9.9c1.7,4.9,7.1,7.4,12,5.7c4.9-1.7,7.4-7.1,5.7-12     c-1.7-4.9-7.1-7.4-12-5.7c-2.7,0.9-4.8,3-5.7,5.7h-9.9c-5.2,0-9.4,4.2-9.4,9.4v18.7h-28.1c-1.7,0-3.1,1.4-3.1,3.1     c0,1.7,1.4,3.1,3.1,3.1h9.4v34.4c0,1.7-1.4,3.1-3.1,3.1H59.3c-1.7,0-3.1-1.4-3.1-3.1v-25c0-1.7-1.4-3.1-3.1-3.1     c-1.7,0-3.1,1.4-3.1,3.1v25c0,5.2,4.2,9.4,9.4,9.4h81.2c5.2,0,9.4-4.2,9.4-9.4v-34.4h12.5v18.7c0,5.2,4.2,9.4,9.4,9.4h9.9     c1.7,4.9,7.1,7.4,12,5.7c4.9-1.7,7.4-7.1,5.7-12c-1.7-4.9-7.1-7.4-12-5.7c-2.7,0.9-4.8,3-5.7,5.7h-9.9c-1.7,0-3.1-1.4-3.1-3.1     v-18.7H181.7z M190.5,131.2c1.7,0,3.1,1.4,3.1,3.1c0,1.7-1.4,3.1-3.1,3.1c-1.7,0-3.1-1.4-3.1-3.1     C187.4,132.6,188.8,131.2,190.5,131.2 M190.5,103.1c1.7,0,3.1,1.4,3.1,3.1s-1.4,3.1-3.1,3.1c-1.7,0-3.1-1.4-3.1-3.1     C187.4,104.5,188.8,103.1,190.5,103.1 M190.5,159.3c1.7,0,3.1,1.4,3.1,3.1c0,1.7-1.4,3.1-3.1,3.1c-1.7,0-3.1-1.4-3.1-3.1     C187.4,160.7,188.8,159.3,190.5,159.3"></path>				<path id="Path_132" class="st3" d="M65.6,137.4c1.7,0,3.1-1.4,3.1-3.1c0-1.7-1.4-3.1-3.1-3.1h-9.4V96.8c0-1.7,1.4-3.1,3.1-3.1     h81.2c1.7,0,3.1,1.4,3.1,3.1v25c0,1.7,1.4,3.1,3.1,3.1c1.7,0,3.1-1.4,3.1-3.1l0,0v-25c0-4-2.5-7.5-6.2-8.8v-9.9     c0-1.7-1.4-3.1-3.1-3.1l0,0h-31.2c-1.7,0-3.1,1.4-3.1,3.1l0,0v9.4H93.7v-9.4c0-1.7-1.4-3.1-3.1-3.1l0,0h-3.1V37.5     C87.5,16.8,70.7,0,50,0S12.5,16.8,12.5,37.5v18.7c0,6.9,5.6,12.5,12.5,12.5s12.5-5.6,12.5-12.5l0,0V37.5     C37.5,30.6,43.1,25,50,25s12.5,5.6,12.5,12.5V75h-3.1c-1.7,0-3.1,1.4-3.1,3.1l0,0V88c-3.7,1.3-6.2,4.8-6.2,8.8v34.4H37.5v-18.7     c0-5.2-4.2-9.4-9.4-9.4h-9.9c-1.7-4.9-7.1-7.4-12-5.7c-4.9,1.7-7.4,7.1-5.7,12s7.1,7.4,12,5.7c2.7-0.9,4.8-3,5.7-5.7h9.9     c1.7,0,3.1,1.4,3.1,3.1v18.7H18.2c-1.7-4.9-7.1-7.4-12-5.7s-7.4,7.1-5.7,12s7.1,7.4,12,5.7c2.7-0.9,4.8-3,5.7-5.7h13.1v18.7     c0,1.7-1.4,3.1-3.1,3.1h-9.9c-1.7-4.9-7.1-7.4-12-5.7c-4.9,1.7-7.4,7.1-5.7,12s7.1,7.4,12,5.7c2.7-0.9,4.8-3,5.7-5.7h9.9     c5.2,0,9.4-4.2,9.4-9.4v-18.7L65.6,137.4z M112.4,81.2h25v6.2h-25L112.4,81.2z M50,18.7c-10.3,0-18.7,8.4-18.7,18.7v18.7     c0,3.4-2.9,6.2-6.3,6.2c-3.4,0-6.1-2.8-6.2-6.2V37.5C18.6,20.2,32.6,6.2,49.8,6.1C67.1,6,81.1,19.9,81.2,37.1c0,0.1,0,0.2,0,0.4     V75H68.7V37.5C68.7,27.1,60.3,18.8,50,18.7 M62.5,81.2h25v6.2h-25V81.2z M9.4,109.3c-1.7,0-3.1-1.4-3.1-3.1s1.4-3.1,3.1-3.1     s3.1,1.4,3.1,3.1C12.5,107.9,11.1,109.3,9.4,109.3 M9.4,137.4c-1.7,0-3.1-1.4-3.1-3.1c0-1.7,1.4-3.1,3.1-3.1s3.1,1.4,3.1,3.1     C12.5,136,11.1,137.4,9.4,137.4 M9.4,165.5c-1.7,0-3.1-1.4-3.1-3.1c0-1.7,1.4-3.1,3.1-3.1s3.1,1.4,3.1,3.1     C12.5,164.1,11.1,165.5,9.4,165.5"></path>			</g>		</g>	</g></g></svg>