<svg xmlns="http://www.w3.org/2000/svg" xmlns:xlink="http://www.w3.org/1999/xlink" id="Layer_1" x="0px" y="0px" width="340.1px" height="372.9px" viewBox="0 0 340.1 372.9" style="enable-background:new 0 0 340.1 372.9;" xml:space="preserve"><style type="text/css">	.st0{clip-path:url(#SVGID_00000134954216804938071040000003106946300755960991_);}	.st1{fill:#FEEA96;}	.st2{fill:#FFFBEC;}	.st3{fill:#010010;}	.st4{fill:#FFFCEE;}	.st5{fill:#FEE57D;}	.st6{clip-path:url(#SVGID_00000129902734570038508970000010584972472428483472_);}	.st7{clip-path:url(#SVGID_00000134240097831669375410000009105310089778279607_);}	.st8{fill:#FFF8DE;}	.st9{fill:#FEE064;}	.st10{opacity:0.5;fill:url(#Path_141_00000150068431692534851050000009516222134035735471_);enable-background:new    ;}	.st11{clip-path:url(#SVGID_00000024691803559289915070000012692296142853821586_);}	.st12{opacity:0.7;fill:url(#Path_142_00000154418440600843117210000013482498059721880747_);enable-background:new    ;}	.st13{clip-path:url(#SVGID_00000127757193304959205390000014680356905770604443_);}	.st14{opacity:0.7;fill:url(#Path_143_00000091721954860513675090000002885926712005210509_);enable-background:new    ;}	.st15{clip-path:url(#SVGID_00000123401922748431087100000007764153559085301655_);}	.st16{opacity:0.7;fill:url(#Path_145_00000076567539413769446740000004927794820472976522_);enable-background:new    ;}	.st17{clip-path:url(#SVGID_00000074401618172665953200000018364913905951281067_);}	.st18{opacity:0.6;fill:url(#Path_144_00000108300265353482448610000009027216769963099536_);enable-background:new    ;}	.st19{clip-path:url(#SVGID_00000013177799430008544560000006035681922039677580_);}</style><g id="Group_145" transform="translate(-384.956 -2850.686)">			<linearGradient id="Path_141_00000082341416327771748070000000627237925412758421_" gradientUnits="userSpaceOnUse" x1="260.9767" y1="3253.7083" x2="260.9767" y2="3252.7083" gradientTransform="matrix(340.0681 0 0 -372.9316 -88194.8438 1216261.25)">		<stop offset="0" style="stop-color:#0EFACD"></stop>		<stop offset="1" style="stop-color:#08CBFA"></stop>	</linearGradient>			<path id="Path_141" style="opacity:0.5;fill:url(#Path_141_00000082341416327771748070000000627237925412758421_);enable-background:new    ;" d="  M449.4,2860.3c22.2-12.8,49.6-12.8,71.9,0l167.8,96.8c22.2,12.8,35.9,36.6,35.9,62.3v35.5c0,25.7-13.7,49.5-35.9,62.4L521.3,3214  c-16.2,9.4-35.4,12-53.6,7.4l-46.9-27c-22.2-12.9-35.9-36.6-35.9-62.2v-193.7c0-22.8,10.8-44.2,29.1-57.7L449.4,2860.3z"></path>	<g id="Group_146" transform="translate(443 2969)">		<g>			<defs>				<rect id="SVGID_00000119807985077245916400000012892892100792630197_" x="0" y="0" width="174.6" height="153.6"></rect>			</defs>			<clipPath id="SVGID_00000008828372507999736640000004508219718544507305_">				<use xlink:href="#SVGID_00000119807985077245916400000012892892100792630197_" style="overflow:visible;"></use>			</clipPath>			<g id="Group_127" style="clip-path:url(#SVGID_00000008828372507999736640000004508219718544507305_);">				<path id="Rectangle_137" class="st4" d="M6.5,3.5h161.6c1.7,0,3,1.3,3,3v112.7c0,1.7-1.3,3-3,3H6.5c-1.7,0-3-1.3-3-3V6.5     C3.5,4.8,4.8,3.5,6.5,3.5z"></path>				<path id="Path_89" class="st5" d="M47.9,149.2c10.9,0,19.7-8.8,19.7-19.7v-8.4H107v8.4c0,10.9,8.8,19.7,19.7,19.7H47.9z"></path>				<path id="Path_90" class="st8" d="M31,87.3c0-9.3-7.6-16.9-16.9-16.9V31C23.4,31,31,23.4,31,14.1h112.6     c0,9.3,7.6,16.9,16.9,16.9v39.4c-9.3,0-16.9,7.6-16.9,16.9L31,87.3z"></path>				<path id="Path_91" class="st1" d="M11.3,121.1c-4.7,0-8.4-3.8-8.4-8.4V98.5h168.9v14.1c0,4.7-3.8,8.4-8.4,8.4H11.3z"></path>				<path id="Path_92" class="st1" d="M121.1,56.3c-3.1,0-5.6-2.5-5.6-5.6c0-3.1,2.5-5.6,5.6-5.6c3.1,0,5.6,2.5,5.6,5.6     C126.7,53.8,124.2,56.3,121.1,56.3"></path>				<path id="Path_93" class="st1" d="M53.5,56.3c-3.1,0-5.6-2.5-5.6-5.6c0-3.1,2.5-5.6,5.6-5.6c3.1,0,5.6,2.5,5.6,5.6     C59.1,53.8,56.6,56.3,53.5,56.3"></path>				<path id="Path_94" class="st3" d="M88.3,48c-2.8-1-4.9-2.8-5.3-4.6c-0.2-1.2,0.1-2.4,1-3.3c2.6-3.1,8,1,8.1,1     c1.2,1,3,0.7,3.9-0.5c1-1.2,0.7-3-0.5-3.9c-1.6-1.2-3.5-2.2-5.4-2.8V31c0-1.6-1.2-2.8-2.8-2.9c-1.6,0-2.8,1.2-2.9,2.8     c0,0,0,0.1,0,0.1v2.6c-1.9,0.4-3.6,1.5-4.8,3c-2.1,2.2-2.9,5.4-2.2,8.3c0.9,3.6,4.2,6.7,8.8,8.4c2.8,1,4.9,2.8,5.3,4.6     c0.2,1.2-0.1,2.4-1,3.3c-2.6,3.1-7.9-0.9-8.1-1c-1.2-1-3-0.7-4,0.5c-1,1.2-0.7,3,0.5,4l0,0c1.6,1.2,3.5,2.2,5.4,2.8v2.9     c0,1.6,1.2,2.8,2.8,2.9c1.6,0,2.8-1.2,2.9-2.8c0,0,0-0.1,0-0.1v-2.6c1.9-0.4,3.6-1.5,4.8-2.9c2.1-2.2,2.9-5.4,2.2-8.3     C96.1,52.9,92.8,49.8,88.3,48"></path>				<path id="Path_95" class="st3" d="M163.3,0h-152C5,0,0,5,0,11.3v101.4c0,6.2,5,11.3,11.3,11.3h53.5v5.6     c0,9.3-7.6,16.9-16.9,16.9c-1.6,0-2.8,1.2-2.9,2.8c0,1.6,1.2,2.8,2.8,2.9c0,0,0.1,0,0.1,0h78.8c1.6,0,2.8-1.2,2.9-2.8     c0-1.6-1.2-2.8-2.8-2.9c0,0-0.1,0-0.1,0c-9.3,0-16.9-7.6-16.9-16.9v-5.6h53.5c6.2,0,11.3-5,11.3-11.3V11.3     C174.6,5,169.5,0,163.3,0 M5.6,11.3c0-3.1,2.5-5.6,5.6-5.6h152c3.1,0,5.6,2.5,5.6,5.6v84.5H5.6V11.3z M111.8,146.4H62.8     c4.9-4.3,7.6-10.4,7.6-16.9v-5.6h33.8v5.6C104.2,136,107,142.1,111.8,146.4 M168.9,112.6c0,3.1-2.5,5.6-5.6,5.6h-152     c-3.1,0-5.6-2.5-5.6-5.6v-11.3h163.3L168.9,112.6z"></path>				<path id="Path_96" class="st3" d="M160.5,28.2c-7.8,0-14.1-6.3-14.1-14.1c0-1.6-1.3-2.8-2.8-2.8c0,0,0,0,0,0H31     c-1.6,0-2.8,1.3-2.8,2.8c0,0,0,0,0,0c0,7.8-6.3,14.1-14.1,14.1c-1.6,0-2.8,1.3-2.8,2.8c0,0,0,0,0,0v39.4c0,1.6,1.3,2.8,2.8,2.8     c7.8,0,14.1,6.3,14.1,14.1c0,1.6,1.3,2.8,2.8,2.8h112.6c1.6,0,2.8-1.3,2.8-2.8c0-7.8,6.3-14.1,14.1-14.1c1.6,0,2.8-1.3,2.8-2.8     V31C163.3,29.4,162.1,28.2,160.5,28.2C160.5,28.2,160.5,28.2,160.5,28.2 M157.7,67.8C149,69,142.2,75.8,141,84.5H33.6     c-1.3-8.6-8.1-15.4-16.7-16.7V33.6c8.6-1.3,15.4-8,16.7-16.7H141c1.3,8.6,8.1,15.4,16.7,16.7L157.7,67.8z"></path>				<path id="Path_97" class="st3" d="M121.1,42.2c-4.7,0-8.4,3.8-8.4,8.4s3.8,8.4,8.4,8.4c4.7,0,8.4-3.8,8.4-8.4l0,0     C129.5,46,125.7,42.2,121.1,42.2 M121.1,53.5c-1.6,0-2.8-1.3-2.8-2.8s1.3-2.8,2.8-2.8c1.6,0,2.8,1.3,2.8,2.8     C123.9,52.2,122.6,53.5,121.1,53.5"></path>				<path id="Path_98" class="st3" d="M53.5,42.2c-4.7,0-8.4,3.8-8.4,8.4s3.8,8.4,8.4,8.4s8.4-3.8,8.4-8.4     C61.9,46,58.2,42.2,53.5,42.2 M53.5,53.5c-1.6,0-2.8-1.3-2.8-2.8s1.3-2.8,2.8-2.8s2.8,1.3,2.8,2.8     C56.3,52.2,55.1,53.5,53.5,53.5"></path>				<path id="Path_99" class="st3" d="M78.8,112.6h16.9c1.6,0,2.8-1.2,2.9-2.8c0-1.6-1.2-2.8-2.8-2.9c0,0-0.1,0-0.1,0H78.8     c-1.6,0-2.8,1.3-2.8,2.9C76.1,111.4,77.3,112.6,78.8,112.6"></path>			</g>		</g>	</g></g></svg>