<svg xmlns="http://www.w3.org/2000/svg" xmlns:xlink="http://www.w3.org/1999/xlink" id="Layer_1" x="0px" y="0px" width="340.1px" height="372.9px" viewBox="0 0 340.1 372.9" style="enable-background:new 0 0 340.1 372.9;" xml:space="preserve"><style type="text/css">	.st0{clip-path:url(#SVGID_00000163034488030077627720000002574071921557620892_);}	.st1{fill:#FEEA96;}	.st2{fill:#FFFBEC;}	.st3{fill:#010010;}	.st4{fill:#FFFCEE;}	.st5{fill:#FEE57D;}	.st6{clip-path:url(#SVGID_00000158714301644808243230000001093438924368288663_);}	.st7{clip-path:url(#SVGID_00000063628482965950794790000007188160117390196886_);}	.st8{fill:#FFF8DE;}	.st9{fill:#FEE064;}	.st10{opacity:0.5;fill:url(#Path_141_00000124881771907184111230000010365052990414133122_);enable-background:new    ;}	.st11{clip-path:url(#SVGID_00000112609133952078608810000006940974328884932497_);}	.st12{opacity:0.7;fill:url(#Path_142_00000113321466774259862250000016177913576410656183_);enable-background:new    ;}	.st13{clip-path:url(#SVGID_00000098211713133203922930000006054325812239114884_);}	.st14{opacity:0.7;fill:url(#Path_143_00000145033792907379460620000018272966409657748398_);enable-background:new    ;}	.st15{clip-path:url(#SVGID_00000065032387857471520770000016834140164473207185_);}	.st16{opacity:0.7;fill:url(#Path_145_00000086669943877668919150000014942794010499198867_);enable-background:new    ;}	.st17{clip-path:url(#SVGID_00000087390814792592832430000011579442512737188024_);}	.st18{opacity:0.6;fill:url(#Path_144_00000168090902371727734250000009168523902709660077_);enable-background:new    ;}	.st19{clip-path:url(#SVGID_00000000216451551948297380000004742374734870887099_);}</style><g id="Group_151" transform="translate(-384.956 -4598.488)">			<linearGradient id="Path_144_00000131326685840632038600000007213491698517776562_" gradientUnits="userSpaceOnUse" x1="-1456.0023" y1="4992.7554" x2="-1456.0023" y2="4991.7554" gradientTransform="matrix(340.0681 0 0 -372.9316 495694.8438 1866554.625)">		<stop offset="0" style="stop-color:#FF8497"></stop>		<stop offset="1" style="stop-color:#F684FF"></stop>	</linearGradient>			<path id="Path_144" style="opacity:0.6;fill:url(#Path_144_00000131326685840632038600000007213491698517776562_);enable-background:new    ;" d="  M449.4,4608.1c22.2-12.8,49.6-12.8,71.9,0l167.8,96.8c22.2,12.8,35.9,36.6,35.9,62.3v35.5c0,25.7-13.7,49.5-35.9,62.4l-167.8,96.8  c-16.2,9.4-35.4,12-53.6,7.4l-46.9-27c-22.2-12.9-35.9-36.6-35.9-62.2v-193.7c0-22.8,10.8-44.2,29.1-57.7L449.4,4608.1z"></path>	<g id="Group_152" transform="translate(435.308 4707.565)">		<g>			<defs>				<rect id="SVGID_00000140697240305633775720000005651610670305685146_" x="0" y="0" width="191" height="137.3"></rect>			</defs>			<clipPath id="SVGID_00000102538930502935578710000002145101261752801706_">				<use xlink:href="#SVGID_00000140697240305633775720000005651610670305685146_" style="overflow:visible;"></use>			</clipPath>			<g id="Group_136" style="clip-path:url(#SVGID_00000102538930502935578710000002145101261752801706_);">				<path id="Rectangle_145" class="st4" d="M5,32.8h181c1.1,0,2,0.9,2,2v97.5c0,1.1-0.9,2-2,2H5c-1.1,0-2-0.9-2-2V34.8     C3,33.7,3.9,32.8,5,32.8z"></path>				<rect id="Rectangle_146" x="20.9" y="32.8" class="st1" width="149.2" height="101.5"></rect>				<path id="Path_133" class="st5" d="M92.5,62.7c-16.5,0-29.8-13.4-29.8-29.8S76,3,92.5,3s29.8,13.4,29.8,29.8     C122.3,49.3,109,62.7,92.5,62.7"></path>				<path id="Path_134" class="st3" d="M182.1,29.8h-47.8c-1.6,0-3,1.3-3,3c0,1.6,1.3,3,3,3h32.8v95.5H23.9V35.8h26.9     c1.6,0,3-1.3,3-3c0-1.6-1.3-3-3-3H9c-4.9,0-8.9,4-9,9v89.5c0,4.9,4,8.9,9,9h173.1c4.9,0,8.9-4,9-9V38.8     C191,33.9,187,29.9,182.1,29.8 M6,128.3V38.8c0-1.6,1.3-3,3-3h9v95.5H9C7.3,131.3,6,130,6,128.3 M185,128.3c0,1.6-1.3,3-3,3h-9     V35.8h9c1.6,0,3,1.3,3,3L185,128.3z"></path>				<path id="Path_135" class="st3" d="M179.1,116.4c-1.6,0-3,1.3-3,3c0,0,0,0,0,0v6c0,1.6,1.3,3,3,3c1.6,0,3-1.3,3-3v-6     C182.1,117.7,180.7,116.4,179.1,116.4C179.1,116.4,179.1,116.4,179.1,116.4"></path>				<path id="Path_136" class="st3" d="M11.9,74.6c-1.6,0-3,1.3-3,3v11.9c0,1.6,1.3,3,3,3s3-1.3,3-3V77.6     C14.9,75.9,13.6,74.6,11.9,74.6C11.9,74.6,11.9,74.6,11.9,74.6"></path>				<path id="Path_137" class="st3" d="M91.4,35.6c2.4,1,4.1,2.5,4.5,4c0.1,0.3,0.3,1.2-0.9,2.6c-2.2,2.5-6.6-1-6.7-1.1     c-1.3-1-3.2-0.8-4.2,0.4c-1,1.3-0.8,3.2,0.4,4.2l0,0c1.4,1.1,3,2,4.7,2.6l-0.1,2.4c0,1.6,1.3,3,2.9,3c0,0,0,0,0,0h0.1     c1.6,0,2.9-1.3,3-2.9l0-2c1.7-0.4,3.2-1.3,4.3-2.6c2-2.1,2.9-5.1,2.2-7.9c-0.8-3.4-3.8-6.4-8.1-8.1c-2.4-1-4.1-2.5-4.5-4     c-0.1-0.3-0.3-1.2,0.9-2.6c2.2-2.5,6.7,1.1,6.7,1.1c1.3,1.1,3.2,0.9,4.2-0.4c1.1-1.3,0.9-3.2-0.4-4.2c0,0,0,0,0,0     c-1.4-1.1-3-2-4.7-2.6l0.1-2.4c0-1.6-1.3-3-2.9-3s-3,1.3-3,2.9l0,0l0,2c-1.7,0.4-3.2,1.3-4.3,2.7c-2,2.1-2.9,5.1-2.2,7.9     C84.2,30.8,87.2,33.9,91.4,35.6"></path>				<path id="Path_138" class="st3" d="M92.5,65.7c18.1,0,32.8-14.7,32.8-32.8S110.7,0,92.5,0C74.4,0,59.7,14.7,59.7,32.8     C59.7,51,74.4,65.6,92.5,65.7 M92.5,6c14.8,0,26.9,12,26.9,26.9s-12,26.9-26.9,26.9s-26.9-12-26.9-26.9l0,0     C65.7,18,77.7,6,92.5,6"></path>				<path id="Path_139" class="st3" d="M38.8,53.7c-1.6,0-3,1.3-3,3v65.7c0,1.6,1.3,3,3,3l0,0h113.4c1.6,0,3-1.3,3-3     c0-1.6-1.3-3-3-3H41.8V56.7C41.8,55.1,40.4,53.7,38.8,53.7C38.8,53.7,38.8,53.7,38.8,53.7"></path>				<path id="Path_140" class="st3" d="M128.3,80.6H139l-16.9,16.9L94.4,75.3c-1.3-1-3.1-0.8-4.2,0.4L77.1,91.4l-9.7-7.3     c-1.2-0.9-2.9-0.8-3.9,0.3L51.6,96.4c-1.2,1.2-1.2,3.1,0,4.2c1.2,1.2,3,1.2,4.2,0l10.1-10.1l9.9,7.4c1.3,1,3.1,0.7,4.1-0.5     l13.1-15.7l27.6,22c1.2,0.9,2.9,0.9,4-0.2l18.8-18.8v10.7c0,1.6,1.3,3,3,3c1.6,0,3-1.3,3-3V77.6c0-1.6-1.3-3-3-3h-17.9     c-1.6,0-3,1.3-3,3C125.4,79.2,126.7,80.6,128.3,80.6L128.3,80.6"></path>			</g>		</g>	</g></g></svg>