<svg xmlns="http://www.w3.org/2000/svg" xmlns:xlink="http://www.w3.org/1999/xlink" id="Layer_1" x="0px" y="0px" width="340.1px" height="372.9px" viewBox="0 0 340.1 372.9" style="enable-background:new 0 0 340.1 372.9;" xml:space="preserve"><style type="text/css">	.st0{clip-path:url(#SVGID_00000007408928317613495840000013754447994243675553_);}	.st1{fill:#FEEA96;}	.st2{fill:#FFFBEC;}	.st3{fill:#010010;}	.st4{fill:#FFFCEE;}	.st5{fill:#FEE57D;}	.st6{clip-path:url(#SVGID_00000005983770660978376130000016257071585517184415_);}	.st7{clip-path:url(#SVGID_00000107576040114783207240000004464477440101827774_);}	.st8{fill:#FFF8DE;}	.st9{fill:#FEE064;}	.st10{opacity:0.5;fill:url(#Path_141_00000077296468635421362400000000886019928868239288_);enable-background:new    ;}	.st11{clip-path:url(#SVGID_00000034087570126550561570000010310298904180626609_);}	.st12{opacity:0.7;fill:url(#Path_142_00000135689627579825817270000014317335767487368636_);enable-background:new    ;}	.st13{clip-path:url(#SVGID_00000015345211787202243240000001882839361215026305_);}	.st14{opacity:0.7;fill:url(#Path_143_00000072996393358881626290000000539825942593428625_);enable-background:new    ;}	.st15{clip-path:url(#SVGID_00000172401966979655763540000010664812918557825952_);}	.st16{opacity:0.7;fill:url(#Path_145_00000009561687159137081010000003193103829899003533_);enable-background:new    ;}	.st17{clip-path:url(#SVGID_00000026882889641486969050000003830575937666283932_);}	.st18{opacity:0.6;fill:url(#Path_144_00000119798877090529505350000003907223729114401946_);enable-background:new    ;}	.st19{clip-path:url(#SVGID_00000119115874297946028460000010714492151443912126_);}</style><g id="Group_149" transform="translate(-586.301 -4163.836)">			<linearGradient id="Path_145_00000178917714667072910740000007784748835867036084_" gradientUnits="userSpaceOnUse" x1="-388.6555" y1="4566.8584" x2="-388.6555" y2="4565.8584" gradientTransform="matrix(340.0701 0 0 -372.9317 132926.4688 1707290.125)">		<stop offset="0" style="stop-color:#F5DB4C"></stop>		<stop offset="1" style="stop-color:#F5804C"></stop>	</linearGradient>			<path id="Path_145" style="opacity:0.7;fill:url(#Path_145_00000178917714667072910740000007784748835867036084_);enable-background:new    ;" d="  M861.9,4173.5c-22.2-12.8-49.6-12.8-71.9,0l-167.8,96.8c-22.2,12.8-35.9,36.6-35.9,62.3v35.5c0,25.7,13.7,49.5,35.9,62.4  l167.8,96.8c16.2,9.4,35.4,12,53.6,7.4l46.9-27c22.2-12.9,35.9-36.6,35.9-62.2v-193.7c0-22.8-10.8-44.2-29.1-57.7L861.9,4173.5z"></path>	<g id="Group_150" transform="translate(686 4258.921)">		<path id="Path_107" class="st1" d="M73.9,161.5h11.7v-56l-39.6,39.6l8.3,8.3l-26.9,2.1l2.1-26.9l8.3,8.3l39.6-39.6H21.2v11.7   L0.8,91.4l20.5-17.5v11.7h56.1L37.7,45.9l-8.3,8.3l-2.1-26.9l26.9,2.1l-8.3,8.3l39.6,39.6v-56H73.9L91.4,0.8l17.5,20.5H97.2v56   l39.6-39.6l-8.3-8.3l26.9-2.1l-2.1,26.9l-8.3-8.3l-39.6,39.6h56.1V73.8L182,91.4l-20.5,17.5V97.2h-56.1l39.6,39.6l8.3-8.3   l2.1,26.9l-26.9-2.1l8.3-8.3l-39.6-39.6v56H109L91.4,182L73.9,161.5z"></path>		<g id="Group_132" transform="translate(0 0)">			<g>				<defs>					<rect id="SVGID_00000008113101938743278890000014647786658852484797_" x="0" y="0" width="182.8" height="182.8"></rect>				</defs>				<clipPath id="SVGID_00000101065526135260056420000001203358624163124143_">					<use xlink:href="#SVGID_00000008113101938743278890000014647786658852484797_" style="overflow:visible;"></use>				</clipPath>				<g id="Group_131" style="clip-path:url(#SVGID_00000101065526135260056420000001203358624163124143_);">					<path id="Path_108" class="st4" d="M91.4,128.5c-20.5,0-37.1-16.6-37.1-37.1c0-20.5,16.6-37.1,37.1-37.1      c20.5,0,37.1,16.6,37.1,37.1c0,0,0,0,0,0C128.5,111.9,111.9,128.5,91.4,128.5"></path>					<path id="Path_109" class="st8" d="M91.4,117.1c-14.2,0-25.7-11.5-25.7-25.7s11.5-25.7,25.7-25.7c14.2,0,25.7,11.5,25.7,25.7      C117.1,105.5,105.6,117.1,91.4,117.1"></path>					<path id="Path_110" class="st3" d="M92.4,88.7c-2-0.8-3.1-1.9-3.3-2.8c-0.1-0.2-0.2-0.7,0.6-1.7c1.4-1.6,4.7,0.8,4.7,0.8      c1.2,1,3,0.8,4-0.4s0.8-3-0.4-4c-0.1,0-0.1-0.1-0.2-0.1c-1.1-0.8-2.3-1.5-3.6-2v-1.5c0-1.6-1.3-2.9-2.9-2.9      c-1.6,0-2.9,1.3-2.9,2.9v1.2c-1.3,0.4-2.4,1.2-3.3,2.3c-1.7,1.8-2.3,4.4-1.7,6.8c0.7,2.8,3.3,5.3,6.9,6.7      c2,0.8,3.1,1.9,3.3,2.8c0.1,0.2,0.2,0.7-0.6,1.7c-1.4,1.6-4.7-0.8-4.7-0.8c-1.3-0.9-3.1-0.7-4,0.6c-0.9,1.2-0.7,3,0.5,3.9      c1.1,0.8,2.3,1.5,3.6,1.9v1.6c0,1.6,1.3,2.9,2.9,2.9s2.9-1.3,2.9-2.9l0,0v-1.3c1.3-0.4,2.4-1.2,3.3-2.2      c1.7-1.8,2.3-4.4,1.7-6.8C98.5,92.5,96,90,92.4,88.7"></path>					<path id="Path_111" class="st3" d="M91.4,62.8c-15.8,0-28.6,12.8-28.6,28.6c0,15.8,12.8,28.6,28.6,28.6      c15.8,0,28.6-12.8,28.6-28.6C120,75.6,107.2,62.8,91.4,62.8 M91.4,114.2c-12.6,0-22.9-10.2-22.8-22.9      c0-12.6,10.2-22.9,22.9-22.8c12.6,0,22.8,10.2,22.8,22.8C114.2,104,104,114.2,91.4,114.2"></path>					<path id="Path_112" class="st3" d="M91.4,51.4c-22.1,0-40,17.9-40,40s17.9,40,40,40s40-17.9,40-40l0,0      C131.4,69.3,113.5,51.4,91.4,51.4 M91.4,125.6c-18.9,0-34.3-15.3-34.3-34.3c0-18.9,15.3-34.3,34.3-34.3      c18.9,0,34.3,15.3,34.3,34.3c0,0,0,0,0,0C125.7,110.3,110.3,125.6,91.4,125.6"></path>					<path id="Path_113" class="st3" d="M74.3,25.7h8.6v17.1c0,1.6,1.3,2.9,2.9,2.9s2.9-1.3,2.9-2.9l0,0v-20c0-1.6-1.3-2.9-2.9-2.9      c0,0,0,0,0,0h-5.2L91.4,7.2l10.9,12.7h-5.2c-1.6,0-2.9,1.3-2.9,2.9c0,0,0,0,0,0v20c0,1.6,1.3,2.9,2.9,2.9      c1.6,0,2.9-1.3,2.9-2.9l0,0V25.7h8.6c1.6,0,2.9-1.3,2.9-2.9c0-0.7-0.2-1.3-0.7-1.9L93.6,1c-1.1-1.2-3-1.3-4.2-0.2      c-0.1,0.1-0.1,0.1-0.2,0.2L72.1,21c-1,1.2-0.9,3,0.3,4C72.9,25.4,73.6,25.7,74.3,25.7"></path>					<path id="Path_114" class="st3" d="M29.8,57.7c1,0.4,2.2,0.1,3-0.7l6.1-6.1L51,63.1c1.1,1.1,2.9,1.1,4,0s1.1-2.9,0-4L40.9,44.9      c-1.1-1.1-2.9-1.1-4,0l-3.7,3.7l-1.3-16.7l16.7,1.3l-3.7,3.7c-1.1,1.1-1.1,2.9,0,4c0,0,0,0,0,0L59.1,55c1.1,1.1,2.9,1.1,4,0      s1.1-2.9,0-4L51,38.8l6.1-6.1c1.1-1.1,1.1-2.9,0-4c-0.5-0.5-1.1-0.8-1.8-0.8l-26.3-2c-1.6-0.1-2.9,1.1-3.1,2.6      c0,0.1,0,0.3,0,0.4l2,26.3C28.1,56.3,28.8,57.3,29.8,57.7"></path>					<path id="Path_115" class="st3" d="M45.7,97.1c0-1.6-1.3-2.9-2.9-2.9c0,0,0,0,0,0h-20c-1.6,0-2.8,1.3-2.8,2.9v5.2L7.2,91.4      L20,80.4v5.2c0,1.6,1.3,2.9,2.9,2.9c0,0,0,0,0,0h20c1.6,0,2.9-1.3,2.9-2.9s-1.3-2.9-2.9-2.9H25.7v-8.6c0-1.6-1.3-2.9-2.9-2.9      c-0.7,0-1.3,0.2-1.9,0.7L1,89.2c-1.2,1-1.3,2.8-0.3,4c0.1,0.1,0.2,0.2,0.3,0.3l20,17.1c1.2,1,3,0.9,4-0.3      c0.4-0.5,0.7-1.2,0.7-1.9v-8.6h17.1C44.4,99.9,45.7,98.6,45.7,97.1C45.7,97.1,45.7,97.1,45.7,97.1"></path>					<path id="Path_116" class="st3" d="M59.1,127.7L45,141.9c-1.1,1.1-1.1,2.9,0,4c0,0,0,0,0,0l3.7,3.7l-16.7,1.3l1.3-16.7l3.7,3.7      c1.1,1.1,2.9,1.1,4,0c0,0,0,0,0,0l14.1-14.1c1.1-1.1,1.1-2.9,0-4s-2.9-1.1-4,0l-12.1,12.1l-6.1-6.1c-1.1-1.1-2.9-1.1-4,0      c-0.5,0.5-0.8,1.1-0.8,1.8l-2,26.3c-0.1,1.6,1.1,2.9,2.6,3.1c0.1,0,0.1,0,0.2,0c0.1,0,0.1,0,0.2,0l26.3-2      c1.6-0.1,2.7-1.5,2.6-3.1c-0.1-0.7-0.3-1.3-0.8-1.8l-6.1-6.1l12.1-12.1c1.1-1.1,1.1-2.9,0-4C62,126.6,60.2,126.6,59.1,127.7      L59.1,127.7"></path>					<path id="Path_117" class="st3" d="M108.5,157.1H100v-17.1c0-1.6-1.3-2.9-2.9-2.9s-2.9,1.3-2.9,2.9v20c0,1.6,1.3,2.9,2.9,2.9      c0,0,0,0,0,0h5.2l-10.9,12.7l-10.9-12.8h5.2c1.6,0,2.9-1.3,2.9-2.9c0,0,0,0,0,0v-20c0-1.6-1.3-2.9-2.9-2.9      c-1.6,0-2.9,1.3-2.9,2.9v17.1h-8.6c-1.6,0-2.9,1.3-2.9,2.9c0,0.7,0.2,1.3,0.7,1.9l17.1,20c1,1.2,2.8,1.3,4,0.3      c0.1-0.1,0.2-0.2,0.3-0.3l17.1-20c1-1.2,0.9-3-0.3-4C109.9,157.3,109.2,157.1,108.5,157.1"></path>					<path id="Path_118" class="st3" d="M153,125c-1-0.4-2.2-0.1-3,0.7l-6.1,6.1l-12.1-12.1c-1.1-1.1-2.9-1.1-4,0s-1.1,2.9,0,4l0,0      l14.1,14.1c1.1,1.1,2.9,1.1,4,0l3.7-3.7l1.3,16.7l-16.7-1.3l3.7-3.7c1.1-1.1,1.1-2.9,0-4c0,0,0,0,0,0l-14.1-14.1      c-1.1-1.1-2.9-1.1-4,0c-1.1,1.1-1.1,2.9,0,4l12.1,12.1l-6.1,6.1c-1.1,1.1-1.1,2.9,0,4c0.5,0.5,1.1,0.8,1.8,0.8l26.3,2      c0.1,0,0.1,0,0.2,0c1.6,0,2.9-1.3,2.9-2.9c0-0.1,0-0.1,0-0.2l-2-26.3C154.8,126.4,154,125.4,153,125"></path>					<path id="Path_119" class="st3" d="M181.8,89.2l-20-17.1c-1.2-1-3-0.9-4,0.3c-0.4,0.5-0.7,1.2-0.7,1.8v8.6H140      c-1.6,0-2.9,1.3-2.9,2.9c0,1.6,1.3,2.9,2.9,2.9l0,0h20c1.6,0,2.9-1.3,2.9-2.9c0,0,0,0,0,0v-5.2l12.7,10.9l-12.7,10.9v-5.2      c0-1.6-1.3-2.9-2.9-2.9l0,0h-20c-1.6,0-2.9,1.3-2.9,2.9s1.3,2.9,2.9,2.9h17.1v8.6c0,1.1,0.6,2.1,1.7,2.6c1,0.5,2.2,0.3,3.1-0.4      l20-17.1c1.2-1,1.3-2.8,0.3-4C182,89.4,181.9,89.3,181.8,89.2"></path>					<path id="Path_120" class="st3" d="M123.7,55l14.1-14.1c1.1-1.1,1.1-2.9,0-4l-3.7-3.7l16.7-1.3l-1.3,16.7l-3.7-3.7      c-1.1-1.1-2.9-1.1-4,0c0,0,0,0,0,0L127.8,59c-1.1,1.1-1.1,2.9,0,4c1.1,1.1,2.9,1.1,4,0c0,0,0,0,0,0L143.9,51L150,57      c1.1,1.1,2.9,1.1,4,0c0.5-0.5,0.8-1.1,0.8-1.8l2-26.3c0.1-0.8-0.2-1.7-0.8-2.2c-0.6-0.6-1.4-0.9-2.2-0.8l-26.3,2      c-1.6,0.1-2.7,1.5-2.6,3.1c0.1,0.7,0.3,1.3,0.8,1.8l6.1,6.1L119.7,51c-1.1,1.1-1.1,2.9,0,4S122.6,56.1,123.7,55"></path>				</g>			</g>		</g>	</g></g></svg>