<svg xmlns="http://www.w3.org/2000/svg" xmlns:xlink="http://www.w3.org/1999/xlink" id="Layer_1" x="0px" y="0px" width="340.1px" height="372.9px" viewBox="0 0 340.1 372.9" style="enable-background:new 0 0 340.1 372.9;" xml:space="preserve"><style type="text/css">	.st0{clip-path:url(#SVGID_00000112610982725108391200000013046477314913325208_);}	.st1{fill:#FEEA96;}	.st2{fill:#FFFBEC;}	.st3{fill:#010010;}	.st4{fill:#FFFCEE;}	.st5{fill:#FEE57D;}	.st6{clip-path:url(#SVGID_00000012443859161281810140000008072906917909868161_);}	.st7{clip-path:url(#SVGID_00000180332068207346372210000010265117878957500085_);}	.st8{fill:#FFF8DE;}	.st9{fill:#FEE064;}	.st10{opacity:0.5;fill:url(#Path_141_00000148658797492820229030000011965399030919561869_);enable-background:new    ;}	.st11{clip-path:url(#SVGID_00000101807886070728845750000013672843199335501969_);}	.st12{opacity:0.7;fill:url(#Path_142_00000134229520513641404730000018212715114275999164_);enable-background:new    ;}	.st13{clip-path:url(#SVGID_00000144313035633340469120000001853815919659254942_);}	.st14{opacity:0.7;fill:url(#Path_143_00000175322017951197422930000002501591797173089674_);enable-background:new    ;}	.st15{clip-path:url(#SVGID_00000070112532484292498930000017279450203380239541_);}	.st16{opacity:0.7;fill:url(#Path_145_00000155851913477231695930000003116227987898280372_);enable-background:new    ;}	.st17{clip-path:url(#SVGID_00000140696842309148792870000016738326134870515899_);}	.st18{opacity:0.6;fill:url(#Path_144_00000150103374882742085660000012250489123792109481_);enable-background:new    ;}	.st19{clip-path:url(#SVGID_00000057107464144728684350000012340527801043968939_);}</style><g id="Group_143" transform="translate(-1145 -3298)">			<linearGradient id="Path_142_00000028290002149501969830000012959138236589301408_" gradientUnits="userSpaceOnUse" x1="615.0287" y1="3692.3389" x2="615.0287" y2="3691.3389" gradientTransform="matrix(340.0701 0 0 -372.9317 -207837.8281 1380288.25)">		<stop offset="0" style="stop-color:#FEF864"></stop>		<stop offset="1" style="stop-color:#FEC364"></stop>	</linearGradient>			<path id="Path_142" style="opacity:0.7;fill:url(#Path_142_00000028290002149501969830000012959138236589301408_);enable-background:new    ;" d="  M1420.6,3307.6c-22.2-12.8-49.6-12.8-71.9,0l-167.8,96.8c-22.2,12.8-35.9,36.6-35.9,62.3v35.5c0,25.7,13.7,49.5,35.9,62.4  l167.8,96.8c16.2,9.4,35.4,12,53.6,7.4l46.9-27c22.2-12.9,35.9-36.6,35.9-62.2v-193.7c0-22.8-10.8-44.2-29.1-57.7L1420.6,3307.6z"></path>	<g id="Group_144" transform="translate(1268 3390)">		<g>			<defs>				<rect id="SVGID_00000043446769695357435600000010612097357525731757_" x="0" y="0" width="153.6" height="189.1"></rect>			</defs>			<clipPath id="SVGID_00000101796332482945179720000011776468187474698648_">				<use xlink:href="#SVGID_00000043446769695357435600000010612097357525731757_" style="overflow:visible;"></use>			</clipPath>							<g id="Group_129" transform="translate(0 0)" style="clip-path:url(#SVGID_00000101796332482945179720000011776468187474698648_);">				<path id="Path_100" class="st4" d="M76.8,186.1C31.9,166.4,3,122,3,72.9V35.5L76.8,3l73.9,32.5v37.5     C150.7,122,121.7,166.4,76.8,186.1L76.8,186.1"></path>				<path id="Path_101" class="st8" d="M76.8,173.1c-38.1-18.8-62.2-57.6-62-100.1V43.2l62-27.3l62,27.3v29.8     C139,115.4,114.9,154.3,76.8,173.1"></path>				<path id="Path_102" class="st1" d="M76.1,124.1c-17.9-0.5-32.1-15.4-31.6-33.4C45,73.1,59.3,59.1,76.9,59.1l0.6,0     c17.9,0.5,32.1,15.5,31.6,33.4c-0.5,17.5-14.8,31.5-32.3,31.6L76.1,124.1z"></path>				<path id="Path_103" class="st3" d="M151.9,32.7L78,0.2c-0.8-0.3-1.6-0.3-2.4,0L1.8,32.7C0.7,33.2,0,34.3,0,35.5v37.5     c0,50.2,29.7,95.7,75.6,115.9c0.8,0.3,1.6,0.3,2.4,0c45.9-20.2,75.6-65.7,75.6-115.9V35.5C153.6,34.3,152.9,33.2,151.9,32.7      M147.7,72.9c0,47.4-27.7,90.4-70.9,110c-43.2-19.6-70.9-62.6-70.9-110V37.4L76.8,6.2l70.9,31.2L147.7,72.9z"></path>				<path id="Path_104" class="st3" d="M75.6,13.2l-62,27.3c-1.1,0.5-1.8,1.5-1.8,2.7v29.8c-0.2,43.6,24.6,83.5,63.7,102.8     c0.8,0.4,1.8,0.4,2.6,0c39.1-19.3,63.8-59.2,63.7-102.8V43.2c0-1.2-0.7-2.2-1.8-2.7L78,13.2C77.2,12.8,76.4,12.8,75.6,13.2      M135.9,45.1v27.8c0.2,40.8-22.7,78.3-59.1,96.8c-36.4-18.5-59.2-56-59.1-96.8V45.1l59.1-26L135.9,45.1z"></path>				<path id="Path_105" class="st3" d="M75.7,94.3c2.3,0.9,4.1,2.5,4.4,3.9c0.1,0.3,0.3,1.2-0.9,2.6c-2.2,2.4-6.6-1.1-6.7-1.1     c-1.3-1-3.2-0.7-4.1,0.6c-0.9,1.2-0.7,3,0.4,4c1.4,1.1,3,2,4.7,2.6l-0.1,2.3c0,1.6,1.3,3,2.9,3c0,0,0,0,0,0h0.1     c1.6,0,2.9-1.3,3-2.9l0-2c1.7-0.4,3.1-1.3,4.3-2.6c2-2.1,2.8-5,2.2-7.8c-0.8-3.4-3.8-6.4-8-8.1c-2.4-0.9-4.1-2.5-4.4-3.9     c-0.1-0.3-0.3-1.2,0.9-2.6c2.2-2.5,6.6,1.1,6.7,1.1c1.3,1,3.1,0.8,4.1-0.5c1-1.3,0.8-3-0.4-4.1c-1.4-1.1-3-2-4.7-2.6l0.1-2.3     c0-1.6-1.3-3-2.9-3c-1.6,0-3,1.3-3,2.9l0,2c-1.7,0.4-3.1,1.3-4.3,2.6c-2,2.1-2.8,5-2.2,7.8C68.5,89.6,71.5,92.6,75.7,94.3"></path>				<path id="Path_106" class="st3" d="M41.4,90.8C41,110.4,56.5,126.6,76,127c0.3,0,0.5,0,0.8,0c19.6,0,35.4-15.9,35.4-35.5     c0-19.6-15.9-35.4-35.5-35.4C57.5,56.1,41.8,71.5,41.4,90.8 M76.8,62c0.2,0,0.4,0,0.7,0c16.3,0.3,29.3,13.8,29,30.2     s-13.8,29.3-30.2,29s-29.3-13.8-29-30.2C47.6,74.9,60.7,62.1,76.8,62"></path>			</g>		</g>	</g></g></svg>