<svg xmlns="http://www.w3.org/2000/svg" xmlns:xlink="http://www.w3.org/1999/xlink" id="Layer_1" x="0px" y="0px" width="1584.7px" height="396px" viewBox="0 0 1584.7 396" style="enable-background:new 0 0 1584.7 396;" xml:space="preserve"><style type="text/css">	.st0{fill:#D077E5;}	.st1{fill:#FF84D8;}	.st2{fill:#FEC4E8;}	.st3{fill:#08F7FA;}	.st4{fill:#FBF78E;}	.st5{fill:#F5AC4C;}	.st6{fill:#FEE064;}	.st7{fill:#FFFFFF;}</style><path class="st0" d="M237.2,342c-12.8,7.4-28.5,7.4-41.3,0l-28.3-16.4c1.5-0.7,3-1.5,4.5-2.4l96.4-55.6c2-1.2,4-2.4,5.8-3.8V297 c0,13.1-6.2,25.4-16.7,33.1L237.2,342z"></path><path class="st1" d="M0,187.8C0,173,7.9,159.4,20.6,152l30-17.3c-0.2,2.2-0.3,4.4-0.3,6.6v111.3c0,3,0.2,5.9,0.6,8.9L20.6,244 C7.9,236.6,0,223,0,208.2V187.8z"></path><path class="st2" d="M217.6,44.4c3.4,0,6.8,0.4,10.1,1.3l27,15.5c12.8,7.4,20.6,21,20.6,35.8v33.2c-1.9-1.4-3.8-2.6-5.8-3.8 l-96.4-55.6c-2.1-1.2-4.3-2.3-6.5-3.3L197,49.9C203.3,46.3,210.4,44.4,217.6,44.4z"></path><path class="st3" d="M117,96.4c12.8-7.4,28.5-7.4,41.3,0l96.4,55.6c12.8,7.4,20.6,21,20.6,35.8v20.4c0,14.8-7.8,28.4-20.6,35.8 l-96.4,55.6c-9.3,5.4-20.3,6.9-30.8,4.3l-26.9-15.5C87.8,281,80,267.4,80,252.6V141.3c0-13.1,6.2-25.4,16.7-33.1L117,96.4z"></path><path class="st4" d="M5.5,76.3c3.6-6.3,8.8-11.5,15.1-15.1L117,5.5c12.8-7.4,28.5-7.4,41.3,0l28.3,16.4c-1.5,0.7-3,1.5-4.5,2.4 L85.8,79.9c-1.8,1.1-3.6,2.2-5.3,3.4L5.9,126.4c-2,1.2-4,2.4-5.9,3.8V96.9C0,89.7,1.9,82.6,5.5,76.3z"></path><path class="st5" d="M158.3,390.5c-12.8,7.4-28.5,7.4-41.3,0l-96.4-55.6C7.9,327.5,0,313.8,0,299.1v-33.2c1.9,1.4,3.8,2.6,5.9,3.8 l96.4,55.6c4.3,2.5,8.9,4.5,13.6,6l66.4,38.3c2.1,1.2,4.3,2.3,6.5,3.3L158.3,390.5z"></path><path class="st6" d="M355.3,252.6c0,14.8-7.9,28.4-20.7,35.8l-30,17.3c0.2-2.2,0.3-4.4,0.3-6.6V96.9c0-3-0.2-5.9-0.6-8.9l30.3,17.5 c12.8,7.4,20.6,21,20.6,35.8L355.3,252.6z"></path><path class="st7" d="M448.6,262.6v-118c0-7.6,6.1-13.8,13.7-13.8h0.1h82v22.6h-69v28.4h51.4v8.8c0,7.6-6.1,13.8-13.7,13.8H513h-37.5 v33.7h69v24.5H448.6z"></path><path class="st7" d="M665.2,256.9c-4.6,3.3-9.8,5.5-15.3,6.5c-6.4,1.6-13,2.3-19.5,2.3c-19.9,0-35.6-6.1-47.1-18.4 c-11.2-12.3-16.9-29.1-16.9-50.6s5.6-38.5,16.9-51c12-12.5,27.7-18.8,47.1-18.8c19.2,0,34.9,6.3,47.1,18.8 c11.5,12.8,17.2,29.8,17.2,51c0.1,8.6-1.1,17.1-3.4,25.3c-2.1,7.5-5.7,14.4-10.7,20.3l14.6,13.8l-7.3,7.3c-2.6,2.6-5.2,3.6-8.1,3.2 c-2.5-0.3-4.9-1.3-6.9-2.9L665.2,256.9z M646.1,238.9l-13.8-13.4l4.6-5c2.1-2.4,5.1-3.8,8.2-4.2c3-0.6,6,0,8.6,1.5l7.7,6.1 c2-3.9,3.6-8,4.6-12.3c0.2-2.3,0.6-4.7,1-7.1c0.4-2.6,0.6-5.2,0.6-7.9c0-14.3-3.3-25.7-10-34.1c-6.7-7.9-15.7-11.9-27.2-11.9 c-11.8,0-20.8,4-27.2,11.9s-9.6,19.3-9.6,34.1s3.2,26.1,9.6,33.7c6.4,7.9,15.5,11.9,27.2,11.9c2.8,0.1,5.7-0.2,8.4-0.8 C641.3,240.9,643.7,240,646.1,238.9L646.1,238.9z"></path><path class="st7" d="M748.5,130.4v82.4c0,10.2,1.9,17.8,5.8,22.6c4.1,4.6,10.6,6.9,19.6,6.9c8.7,0,15.2-2.3,19.5-6.9 c4.1-4.6,6.1-12.1,6.1-22.6v-82.4h27.2v85.5c0,16.3-4.6,28.7-13.8,37.2c-8.4,8.4-21.5,12.6-39.1,12.7c-17.6,0-30.7-4.2-39.1-12.7 c-9.2-8.4-13.8-20.8-13.8-37.2V145c0-3.8,1.4-7.4,4-10.2c2.5-2.8,6-4.4,9.8-4.4L748.5,130.4z"></path><path class="st7" d="M851.3,262.6v-118c0-7.6,6.1-13.8,13.7-13.8h0.1h13.4v131.8H851.3z"></path><path class="st7" d="M899.3,262.6v-118c0-7.6,6.1-13.8,13.7-13.8h0.1H951c20.2,0,35.3,5.4,45.2,16.1c10,11.3,15,27.9,15,49.8 c0.2,10.8-1.7,21.6-5.4,31.8c-4.1,9.7-9.4,17.1-16.1,22.2c-5.3,4.2-11.5,7.3-18,9.2c-6.1,1.8-15.5,2.7-28,2.7L899.3,262.6z  M925.7,238.9h21.8c12.5,0,21.7-3.3,27.6-10c5.6-6.1,8.4-16.9,8.4-32.2c0-14.8-2.7-25.7-8-32.6c-5.1-6.9-13.3-10.3-24.5-10.3h-25.3 V238.9z"></path><path class="st7" d="M1036.1,262.6v-118c0-7.6,6.1-13.8,13.7-13.8h0.1h82v22.6h-69v28.4h51.4v8.8c0,7.6-6.1,13.8-13.7,13.8h-0.1 h-37.6v33.7h69v24.5H1036.1z"></path><path class="st7" d="M1156.2,262.6v-118c0-7.6,6.1-13.8,13.7-13.8h0.1h82v22.6h-69v28.4h51.4v8.8c0,7.6-6.1,13.8-13.7,13.8h-0.1 H1183v58.2H1156.2z"></path><path class="st7" d="M1276.2,262.6v-118c0-7.6,6.1-13.8,13.7-13.8h0.1h13.4v131.8H1276.2z"></path><g>	<path class="st7" d="M1396.9,159.5c2.4,0.8,4.1,2.1,5.3,3.8c1,1.9,1.5,4.6,1.7,8.2l0.5,10.8c0.1,1.7,0.7,2.9,1.8,3.6h-12.4  c-0.6-1.1-0.8-2.2-0.9-3.3c-0.2-0.8-0.4-4-0.5-9.3c-0.4-6.6-1.6-8.8-8.3-8.8h-12v21.4h-11.3v-49.2c0-3.2,2.5-5.9,5.7-5.9h20.9  c11.4,0,17.8,4.4,17.8,15.7C1405.2,153.5,1402.2,158,1396.9,159.5z M1386.1,140.4h-13.9v14.5h13.3c5.4,0,8.4-1.9,8.4-7.3  C1393.8,142.6,1391.1,140.4,1386.1,140.4z"></path></g><g>	<path class="st7" d="M1382.8,215.7c-30.4,0-55.1-24.7-55.1-55.1s24.7-55.1,55.1-55.1s55.1,24.7,55.1,55.1  S1413.2,215.7,1382.8,215.7z M1382.8,115.8c-24.7,0-44.8,20.1-44.8,44.8c0,24.7,20.1,44.8,44.8,44.8s44.8-20.1,44.8-44.8  C1427.6,135.9,1407.5,115.8,1382.8,115.8z"></path></g></svg>