<svg xmlns="http://www.w3.org/2000/svg" xmlns:xlink="http://www.w3.org/1999/xlink" id="Layer_1" x="0px" y="0px" width="150px" height="150px" viewBox="0 0 150 150" style="enable-background:new 0 0 150 150;" xml:space="preserve"><style type="text/css">	.st0{clip-path:url(#SVGID_00000147204688187887546840000016463806164840724150_);}	.st1{fill:#FEEA96;}	.st2{fill:#FFFBEC;}	.st3{fill:#010010;}	.st4{fill:#FFFCEE;}	.st5{fill:#FEE57D;}	.st6{clip-path:url(#SVGID_00000100363152173900575410000009726478325749533375_);}	.st7{clip-path:url(#SVGID_00000065072304527785081460000005274516090837590155_);}	.st8{fill:#FFF8DE;}	.st9{fill:#FEE064;}</style><g id="Group_102" transform="translate(420 5.649)">	<rect id="Rectangle_111" x="-406.5" y="33.9" class="st4" width="119" height="58"></rect>	<rect id="Rectangle_112" x="-351.5" y="42.9" class="st5" width="9" height="32"></rect>	<rect id="Rectangle_113" x="-373.5" y="42.9" class="st5" width="8" height="32"></rect>	<rect id="Rectangle_114" x="-328.5" y="42.9" class="st5" width="8" height="32"></rect>	<rect id="Rectangle_115" x="-355.5" y="74.9" class="st1" width="17" height="9"></rect>	<rect id="Rectangle_116" x="-377.5" y="74.9" class="st1" width="16" height="9"></rect>	<rect id="Rectangle_117" x="-332.5" y="74.9" class="st1" width="16" height="9"></rect>	<g id="Group_101">		<g>			<defs>				<rect id="SVGID_00000161614695806101851580000014817339439310020505_" x="-408.5" y="3.9" width="127" height="131"></rect>			</defs>			<clipPath id="SVGID_00000148642568607261935740000017793444176822494654_">				<use xlink:href="#SVGID_00000161614695806101851580000014817339439310020505_" style="overflow:visible;"></use>			</clipPath>			<g id="Group_100" style="clip-path:url(#SVGID_00000148642568607261935740000017793444176822494654_);">				<path id="Path_24" class="st5" d="M-369.5,132.8c5.7,0,10.3-4.6,10.3-10.3v-14.4h24.6v14.4c0,5.7,4.6,10.3,10.3,10.3H-369.5z"></path>				<rect id="Rectangle_118" x="-381.5" y="83.9" class="st5" width="69" height="8"></rect>				<rect id="Rectangle_119" x="-355.5" y="33.9" class="st1" width="17" height="9"></rect>				<rect id="Rectangle_120" x="-377.5" y="33.9" class="st1" width="16" height="9"></rect>				<rect id="Rectangle_121" x="-332.5" y="33.9" class="st1" width="16" height="9"></rect>				<rect id="Rectangle_122" x="-381.5" y="25.9" class="st5" width="69" height="8"></rect>				<rect id="Rectangle_123" x="-406.5" y="91.9" class="st1" width="119" height="16"></rect>				<path id="Path_25" class="st5" d="M-299.7,132.8c-9.1,0-16.4-7.4-16.4-16.4s7.4-16.4,16.4-16.4s16.4,7.4,16.4,16.4v0     C-283.3,125.4-290.7,132.8-299.7,132.8"></path>				<path id="Path_26" class="st1" d="M-388,26.1l41-20.5l41,20.5H-388z"></path>				<path id="Path_27" class="st3" d="M-299,114.5c-1.1-0.3-1.9-1-2.4-2c0-0.1-0.1-0.5,0.4-1.2c1-1.2,3.4,0.6,3.4,0.6     c0.9,0.7,2.2,0.5,2.9-0.4c0.7-0.9,0.5-2.2-0.4-2.9c-0.8-0.6-1.7-1.1-2.6-1.4v-1.1c0.1-1.1-0.8-2.1-2-2.1c-1.1-0.1-2.1,0.8-2.1,2     c0,0.1,0,0.1,0,0.2v0.9c-0.9,0.3-1.7,0.9-2.3,1.6c-1.2,1.3-1.7,3.1-1.2,4.9c0.8,2.3,2.6,4.1,4.9,4.8c1.1,0.3,1.9,1,2.4,2     c0,0.1,0.1,0.5-0.4,1.2c-1,1.2-3.4-0.6-3.4-0.6c-0.9-0.7-2.2-0.5-2.9,0.4c-0.7,0.9-0.5,2.1,0.4,2.8c0.8,0.6,1.7,1.1,2.6,1.4v1.1     c-0.1,1.1,0.8,2.1,2,2.1c1.1,0.1,2.1-0.8,2.1-2c0-0.1,0-0.1,0-0.2v-0.9c0.9-0.3,1.7-0.8,2.4-1.6c1.2-1.3,1.7-3.1,1.2-4.9     C-294.9,117-296.7,115.2-299,114.5"></path>				<path id="Path_28" class="st3" d="M-299.7,97.9c-10.2,0-18.5,8.3-18.5,18.5s8.3,18.5,18.5,18.5c10.2,0,18.5-8.3,18.5-18.5     C-281.3,106.2-289.5,97.9-299.7,97.9 M-299.7,130.7c-7.9,0-14.4-6.4-14.4-14.4s6.4-14.4,14.4-14.4c7.9,0,14.4,6.4,14.4,14.4     c0,0,0,0,0,0C-285.4,124.3-291.8,130.7-299.7,130.7"></path>				<path id="Path_29" class="st3" d="M-322.3,106.1h-82.1V93.8h114.9v2.1c0.1,1.1,1,2,2.1,2c1.1,0,1.9-0.9,2-2V34.3     c0-1.1-0.9-2.1-2.1-2.1l0,0h-16.4c-1.1,0.1-2,1-2,2.1c0,1.1,0.9,1.9,2,2h14.4v53.4H-310v-6.2c0-1.1-0.9-2.1-2.1-2.1l0,0h-2.1     v-6.2c0-1.1-0.9-2.1-2.1-2.1l0,0h-2.1V44.5h2.1c1.1,0,2.1-0.9,2.1-2.1v-6.2h2.1c1.1,0,2.1-0.9,2.1-2.1v0v-6.2h4.1     c1.1,0,2.1-0.9,2.1-2.1c0-0.8-0.4-1.5-1.1-1.8l-41-20.5c-0.6-0.3-1.3-0.3-1.8,0l-41,20.5c-1,0.5-1.4,1.7-0.9,2.8     c0.3,0.7,1.1,1.1,1.8,1.1h4.1v6.2c0,1.1,0.9,2.1,2.1,2.1h2.1v6.2c0,1.1,0.9,2.1,2.1,2.1h2.1v28.7h-2c-1.1,0-2.1,0.9-2.1,2.1v6.2     h-2.1c-1.1,0-2.1,0.9-2.1,2.1v6.2h-20.5V36.3h14.4c1.1-0.1,2-1,2-2.1c0-1.1-0.9-1.9-2-2h-16.4c-1.1,0-2,0.9-2.1,2v73.9     c0,1.1,0.9,2.1,2.1,2.1h45.1v12.3c0,4.5-3.7,8.2-8.2,8.2c-1.1,0.1-2,1-2,2.1c0,1.1,0.9,1.9,2,2h45.2c1.1-0.1,2-1,2-2.1     c0-1.1-0.9-1.9-2-2c-4.5,0-8.2-3.7-8.2-8.2v-12.3h10.3c1.1-0.1,2-1,2-2.1C-320.4,107-321.2,106.2-322.3,106.1 M-336.7,81.5v-6.2     c0-1.1-0.9-2.1-2.1-2.1c0,0,0,0,0,0h-2.1V44.5h2.1c1.1,0,2.1-0.9,2.1-2.1v-6.2h2.1v6.2c0,1.1,0.9,2.1,2.1,2.1h2.1v28.7h-2.1     c-1.1,0-2.1,0.9-2.1,2.1v6.2H-336.7z M-359.2,81.5v-6.2c0-1.1-0.9-2.1-2.1-2.1c0,0,0,0,0,0h-2V44.5h2c1.1,0,2.1-0.9,2.1-2.1     v-6.2h2.1v6.2c0,1.1,0.9,2.1,2.1,2.1h2.1v28.7h-2c-1.1,0-2.1,0.9-2.1,2.1v6.2H-359.2z M-344.9,73.3h-4.1V44.5h4.1V73.3z      M-353.1,36.3h12.3v4.1h-12.3V36.3z M-353.1,77.4h12.3v4.1h-12.3V77.4z M-330.5,77.4h12.3v4.1h-12.3V77.4z M-322.3,73.3h-4.1     V44.5h4.1V73.3z M-318.2,40.4h-12.3v-4.1h12.3L-318.2,40.4z M-346.9,7.8l32.4,16.2h-64.7L-346.9,7.8z M-314.1,32.2h-65.7v-4.1     h65.7V32.2z M-363.3,40.4h-12.3v-4.1h12.3V40.4z M-371.6,44.5h4.1v28.7h-4.1V44.5z M-375.7,77.4h12.3v4.1h-12.3L-375.7,77.4z      M-379.8,85.6h65.7v4.1h-65.7L-379.8,85.6z M-333.5,130.7h-26.8c2-2.3,3.1-5.2,3.1-8.2v-12.3h20.5v12.3     C-336.7,125.6-335.5,128.5-333.5,130.7"></path>				<path id="Path_30" class="st3" d="M-351,97.9c-1.1,0.1-2,1-2,2.1c0,1.1,0.9,1.9,2,2h8.2c1.1-0.1,2-1,2-2.1c0-1.1-0.9-1.9-2-2     H-351z"></path>			</g>		</g>	</g></g></svg>