<svg xmlns="http://www.w3.org/2000/svg" xmlns:xlink="http://www.w3.org/1999/xlink" id="Layer_1" x="0px" y="0px" width="150px" height="150px" viewBox="0 0 150 150" style="enable-background:new 0 0 150 150;" xml:space="preserve"><style type="text/css">	.st0{clip-path:url(#SVGID_00000087410079435782180280000011629672416157129903_);}	.st1{fill:#FEEA96;}	.st2{fill:#FFFBEC;}	.st3{fill:#010010;}	.st4{fill:#FFFCEE;}	.st5{fill:#FEE57D;}	.st6{clip-path:url(#SVGID_00000100356906610502571460000014219450279358085275_);}	.st7{clip-path:url(#SVGID_00000049941872979386449340000007727080023114996378_);}	.st8{fill:#FFF8DE;}	.st9{fill:#FEE064;}</style><g id="Group_116" transform="translate(844 -0.035)">	<g>		<defs>			<rect id="SVGID_1_" x="-840.5" y="3.5" width="143" height="143"></rect>		</defs>		<clipPath id="SVGID_00000165222442312751368590000001845537960949624228_">			<use xlink:href="#SVGID_1_" style="overflow:visible;"></use>		</clipPath>		<g id="Group_110" style="clip-path:url(#SVGID_00000165222442312751368590000001845537960949624228_);">			<path id="Path_64" class="st1" d="M-746.6,106.3c-19.7,0-35.8-16-35.8-35.8s16-35.8,35.8-35.8s35.8,16,35.8,35.8l0,0    C-710.9,90.3-726.9,106.3-746.6,106.3"></path>			<path id="Path_65" class="st2" d="M-822.6,139.8V95.1l4.2-3.4c9.3-7.4,22.5-7.4,31.8,0l4.2,3.4h33.5c4,0,7.5,2.6,8.6,6.5l0.7,2.3    l28.2-11c4.4-1.7,9.4,0.5,11.1,4.9c1.6,4.2-0.2,8.9-4.3,10.8l-64.5,31.2H-822.6z"></path>			<rect id="Rectangle_133" x="-838.5" y="90.5" class="st1" width="16" height="54"></rect>			<path id="Path_66" class="st3" d="M-702.2,92c-2.9-2-6.7-2.4-10-1.2l-26,10.1c-1.4-4.8-5.7-8.1-10.7-8.1h-32.7l-3.6-2.9    c-10.1-8.1-24.5-8.1-34.6,0l-0.6,0.5c-0.1-1.2-1-2.1-2.2-2.1h-15.6c-1.2,0-2.2,1-2.2,2.2v53.6c0,1.2,1,2.2,2.2,2.2c0,0,0,0,0,0    h15.6c1.2,0,2.2-1,2.2-2.2v-2.2h51.4c0.3,0,0.7-0.1,1-0.2l64.5-31.2c5.4-2.6,7.6-9.1,5-14.4C-699.4,94.5-700.6,93.1-702.2,92     M-824.9,142.1H-836V92.9h11.2V142.1z M-705.5,106.6l-64,31h-50.9V96.2l3.4-2.7c8.5-6.8,20.6-6.8,29,0l4.2,3.4    c0.4,0.3,0.9,0.5,1.4,0.5h33.5c3.7,0,6.7,3,6.7,6.7c0,3.7-3,6.7-6.7,6.7h-31.3c-1.2,0-2.2,1-2.2,2.2c0,1.2,1,2.2,2.2,2.2    c0,0,0,0,0,0h31.3c5.5,0,10.2-4.1,11-9.6l27.3-10.6c3.3-1.3,6.9,0.3,8.2,3.6c0.3,0.7,0.4,1.5,0.4,2.3    C-701.9,103.4-703.3,105.6-705.5,106.6"></path>			<path id="Path_67" class="st3" d="M-778.8,88.4c0.3,0,0.7-0.1,1-0.2c1.1-0.5,1.6-1.9,1-3c0,0,0,0,0,0c-2.2-4.6-3.4-9.6-3.4-14.7    c0-18.5,15-33.5,33.5-33.5c18.5,0,33.5,15,33.5,33.5c0,4.4-0.9,8.8-2.6,12.9c-0.1,0.3-0.2,0.6-0.2,0.9c0,1.2,1,2.2,2.2,2.2    c0.9,0,1.8-0.6,2.1-1.5c8-19.4-1.2-41.6-20.6-49.6c-19.4-8-41.6,1.2-49.6,20.6c-4.2,10-3.8,21.4,0.9,31.1    C-780.4,87.9-779.6,88.4-778.8,88.4"></path>			<path id="Path_68" class="st3" d="M-746.6,88.4c1.2,0,2.2-1,2.2-2.2c0,0,0,0,0,0v-2.1c1.5-0.3,2.8-1.2,3.8-2.3    c1.6-1.8,2.3-4.3,1.7-6.6c-0.7-2.8-3.3-5.3-7-6.7c-2.2-0.8-3.9-2.3-4.2-3.6c-0.2-1,0.1-1.9,0.8-2.6c2.1-2.5,6.4,0.8,6.4,0.8    c1,0.8,2.4,0.6,3.1-0.4c0.8-1,0.6-2.4-0.4-3.1c-1.3-1-2.7-1.7-4.3-2.2v-2.3c0-1.2-1-2.2-2.2-2.2c-1.2,0-2.2,1-2.2,2.2V57    c-1.5,0.3-2.8,1.2-3.8,2.3c-1.6,1.8-2.3,4.3-1.7,6.6c0.7,2.8,3.3,5.3,7,6.7c2.2,0.8,3.9,2.3,4.2,3.6c0.2,1-0.1,1.9-0.8,2.6    c-2.1,2.5-6.4-0.8-6.4-0.8c-1-0.7-2.4-0.5-3.1,0.5c-0.7,1-0.5,2.3,0.4,3.1c1.3,1,2.7,1.7,4.3,2.2v2.3    C-748.9,87.4-747.9,88.4-746.6,88.4C-746.6,88.4-746.6,88.4-746.6,88.4"></path>			<path id="Path_69" class="st3" d="M-746.6,28.1c1.2,0,2.2-1,2.2-2.2c0,0,0,0,0,0V5.7c0-1.2-1-2.2-2.2-2.2s-2.2,1-2.2,2.2v20.1    C-748.9,27.1-747.9,28.1-746.6,28.1C-746.6,28.1-746.6,28.1-746.6,28.1"></path>			<path id="Path_70" class="st3" d="M-737.7,28.1c1.2,0,2.2-1,2.2-2.2c0,0,0,0,0,0V14.7c0-1.2-1-2.2-2.2-2.2s-2.2,1-2.2,2.2v11.2    C-739.9,27.1-738.9,28.1-737.7,28.1C-737.7,28.1-737.7,28.1-737.7,28.1"></path>			<path id="Path_71" class="st3" d="M-755.6,28.1c1.2,0,2.2-1,2.2-2.2c0,0,0,0,0,0V14.7c0-1.2-1-2.2-2.2-2.2s-2.2,1-2.2,2.2v11.2    C-757.8,27.1-756.8,28.1-755.6,28.1C-755.6,28.1-755.6,28.1-755.6,28.1"></path>		</g>	</g></g></svg>