<svg xmlns="http://www.w3.org/2000/svg" xmlns:xlink="http://www.w3.org/1999/xlink" id="Layer_1" x="0px" y="0px" width="150px" height="150px" viewBox="0 0 150 150" style="enable-background:new 0 0 150 150;" xml:space="preserve"><style type="text/css">	.st0{clip-path:url(#SVGID_00000005253647375206435390000018141794442040363145_);}	.st1{fill:#FEEA96;}	.st2{fill:#FFFBEC;}	.st3{fill:#010010;}	.st4{fill:#FFFCEE;}	.st5{fill:#FEE57D;}	.st6{clip-path:url(#SVGID_00000149374567685672889890000002927782041651789708_);}	.st7{clip-path:url(#SVGID_00000059312137971157913580000011473252856636427445_);}	.st8{fill:#FFF8DE;}	.st9{fill:#FEE064;}</style><g id="Group_115" transform="translate(0.235 15.609)">	<rect id="Rectangle_135" x="7.3" y="5.9" class="st4" width="108" height="62"></rect>	<g id="Group_113">		<g>			<defs>				<rect id="SVGID_00000127040748043535679120000013269433107713404554_" x="5.3" y="3.9" width="139" height="111"></rect>			</defs>			<clipPath id="SVGID_00000152251928218821547920000010940682573301681833_">				<use xlink:href="#SVGID_00000127040748043535679120000013269433107713404554_" style="overflow:visible;"></use>			</clipPath>			<g id="Group_112" style="clip-path:url(#SVGID_00000152251928218821547920000010940682573301681833_);">				<path id="Path_72" class="st8" d="M27.8,59.4c0-6.2-5-11.2-11.2-11.2V25.8c6.2,0,11.2-5,11.2-11.2h67c0,6.2,5,11.2,11.2,11.2     v22.3c-6.2,0-11.2,5-11.2,11.2H27.8z"></path>				<path id="Path_73" class="st1" d="M115,113c-16.6-9.7-26.8-27.5-26.8-46.7v-6.9L115,41.5l26.8,17.9v6.9     C141.8,85.5,131.6,103.3,115,113"></path>				<path id="Path_74" class="st5" d="M115,105c-12.6-8.9-20.1-23.3-20.1-38.7V63L115,49.5L135.1,63v3.4     C135.1,81.7,127.6,96.2,115,105"></path>				<path id="Path_75" class="st9" d="M135.1,66.3V63L115,49.5V105C127.6,96.2,135.1,81.7,135.1,66.3"></path>				<path id="Path_76" class="st3" d="M79.3,57.1H29.9c-1-5.6-5.4-10-11-11V27.9c5.6-1,10-5.4,11-11h62.9c1,5.6,5.4,10,11,11V37     c0,1.2,1,2.2,2.2,2.2s2.2-1,2.2-2.2l0,0V25.9c0-1.2-1-2.2-2.2-2.2c-4.9,0-8.9-4-8.9-8.9c0-1.2-1-2.2-2.2-2.2c0,0,0,0,0,0h-67     c-1.2,0-2.2,1-2.2,2.2c0,4.9-4,8.9-8.9,8.9c-1.2,0-2.2,1-2.2,2.2v22.3c0,1.2,1,2.2,2.2,2.2c4.9,0,8.9,4,8.9,8.9     c0,1.2,1,2.2,2.2,2.2h51.4c1.2,0,2.2-1,2.2-2.2S80.5,57.1,79.3,57.1"></path>				<path id="Path_77" class="st3" d="M79.3,66.1H10V8h102.8v24.6c0,1.2,1,2.2,2.2,2.2s2.2-1,2.2-2.2V5.7c0-1.2-1-2.2-2.2-2.2H7.7     c-1.2,0-2.2,1-2.2,2.2v62.6c0,1.2,1,2.2,2.2,2.2h71.5c1.2,0,2.2-1,2.2-2.2S80.5,66.1,79.3,66.1"></path>				<path id="Path_78" class="st3" d="M61.4,52.7c1.2,0,2.2-1,2.2-2.2v-1.5c1.2-0.3,2.4-1,3.2-2c1.5-1.6,2.1-3.8,1.5-6     c-0.7-2.5-3-4.8-6.2-6c-1.8-0.7-3.1-1.8-3.4-2.9c-0.2-0.7,0.1-1.5,0.6-2c1.6-1.9,5,0.7,5.1,0.7c1,0.8,2.4,0.6,3.1-0.3     c0.8-1,0.6-2.4-0.3-3.1c0,0,0,0-0.1-0.1c-1.1-0.8-2.3-1.5-3.6-1.9v-1.8c0-1.2-1-2.2-2.2-2.2c-1.2,0-2.2,1-2.2,2.2v1.5     c-1.2,0.3-2.4,1.1-3.2,2.1c-1.5,1.6-2.1,3.8-1.5,6c0.7,2.5,3,4.8,6.2,6c1.8,0.7,3.1,1.8,3.4,2.9c0.2,0.7-0.1,1.5-0.6,2     c-1.6,1.9-5-0.7-5.1-0.7c-1-0.8-2.4-0.6-3.1,0.4c-0.8,1-0.6,2.4,0.4,3.1c1.1,0.8,2.3,1.4,3.6,1.8v1.8     C59.1,51.7,60.1,52.7,61.4,52.7"></path>				<path id="Path_79" class="st3" d="M143.1,57.5l-26.8-17.9c-0.8-0.5-1.7-0.5-2.5,0L87,57.5c-0.6,0.4-1,1.1-1,1.9v6.9     c0,20,10.7,38.5,27.9,48.6c0.7,0.4,1.6,0.4,2.3,0c17.3-10.1,27.9-28.6,27.9-48.6v-6.9C144.1,58.6,143.7,57.9,143.1,57.5      M139.6,66.3c0,18-9.3,34.6-24.6,44.1c-15.3-9.5-24.5-26.1-24.6-44.1v-5.7L115,44.2l24.6,16.4V66.3z"></path>				<path id="Path_80" class="st3" d="M113.8,47.7L93.7,61.1c-0.6,0.4-1,1.1-1,1.9v3.4c0,16.1,7.9,31.3,21.1,40.6     c0.8,0.5,1.8,0.5,2.6,0c13.2-9.3,21-24.4,21.1-40.6V63c0-0.7-0.4-1.4-1-1.9l-20.1-13.4C115.5,47.2,114.5,47.2,113.8,47.7      M97.1,66.3v-2.2l15.6-10.4v46.7C102.9,91.9,97.1,79.4,97.1,66.3 M132.9,66.3c0,13.1-5.7,25.6-15.6,34.1V53.7l15.6,10.4     L132.9,66.3z"></path>			</g>		</g>	</g></g></svg>